<?xml version="1.0" standalone="yes"?>
<svg xmlns="http://www.w3.org/2000/svg" width="1101" height="2200">
<path style="fill:#fcfcfc; stroke:none;" d="M0 0L0 2200L1100 2200L1100 0L0 0z"/>
<path style="fill:#292f23; stroke:none;" d="M1100 0L1100 2200C1101.98 2195.28 1101 2189.08 1101 2184L1101 2152L1101 2041L1101 1656L1101 479L1101 140L1101 42L1101 14C1101 9.46484 1101.77 4.21509 1100 0M526 1059L567 1059C573.379 1008.79 601.78 958.823 647 934.309C713.672 898.165 808.268 914.11 847.988 982C853.924 992.145 858.351 1003.55 861 1015L866 1015C865.611 996.144 861.149 976.617 858.275 958C857.312 951.765 858.26 941.407 854.397 936.21C850.113 930.445 840.274 926.882 834 923.753C813.905 913.73 792.874 907.813 771 903.336C679.884 884.687 575.317 920.991 538.8 1012C532.955 1026.57 526.328 1043.12 526 1059M199 907L199 912C216.08 912.011 233.45 918.541 239.754 936C244.35 948.73 242 964.676 242 978L242 1059L278 1059L278 923C319.497 923 374.92 913.554 401.455 954C406.316 961.41 409.763 969.524 412.279 978C415.294 988.156 416.743 999.428 416.985 1010C417.206 1019.62 416.185 1030.73 413.572 1040C411.754 1046.45 408.17 1052.42 407 1059L437 1059C440.197 1059 445.571 1060 448.301 1057.97C450.988 1055.98 451.982 1051.01 452.996 1048C456.021 1039.04 457.985 1029.47 458 1020C458.059 983.254 448.696 947.093 416 925.696C386.5 906.39 352.85 907 319 907L199 907M199 1074L199 1119L202 1119L202 1102C208.16 1102 217.384 1103.71 222.985 1100.82C232.631 1095.85 231.858 1081.29 222.985 1076.09C216.402 1072.23 206.341 1074 199 1074M238 1074L238 1119L241 1119L241 1102C245.337 1102 252.001 1100.75 255.621 1103.6C261.168 1107.97 261.731 1116.76 269 1119C267.134 1112.66 262.993 1107.19 259 1102C269.991 1097.67 273.239 1082.57 261.996 1076.09C255.357 1072.26 245.382 1074 238 1074M293 1074.52C265.763 1080.3 273.334 1124 301 1118.66C326.601 1113.72 319.183 1068.96 293 1074.52M319 1074C322.275 1084.35 331.203 1091.96 335.005 1102C336.951 1107.14 336 1113.59 336 1119C341.393 1115.5 337.884 1107.45 339.702 1102C343.074 1091.88 352.201 1084.04 356 1074C346.422 1076.95 343.724 1091.95 336 1098C333.111 1090.38 326.46 1077.65 319 1074M363 1074L363 1119L393 1119L393 1116L366 1116C366 1111.55 364.205 1102 367.603 1098.6C371.47 1094.74 383.858 1097 389 1097L389 1095L366 1095L366 1077L392 1077L392 1075C382.341 1073.78 372.733 1074 363 1074M402 1074L402 1119L405 1119C405 1116.02 404.814 1112.97 405.058 1110C405.241 1107.78 405.83 1105.89 407.032 1104C416.604 1088.97 425.278 1116.25 435 1119C432.07 1112.8 426.776 1107.41 422.576 1102C420.91 1099.86 417.758 1096.98 417.966 1094C418.164 1091.17 421.171 1088.86 423.002 1087C426.972 1082.97 431.543 1079.16 434 1074C429.324 1075.31 426.375 1078.6 423.004 1082C416.863 1088.2 411.182 1094.82 405 1101C405 1092.39 406.449 1082.28 404 1074L402 1074M437 1074L437 1077L453 1077L453 1119L456 1119L456 1090C456 1086.69 455.019 1081.19 457.603 1078.6C460.619 1075.59 468.089 1077 472 1077C469.365 1073.54 465.067 1074.01 461 1074L437 1074M529 1109C527.522 1108.01 527.797 1108 526 1108C523.952 1110.56 521.917 1112.83 518.996 1114.44C509.001 1119.96 497.819 1112.02 494.8 1102C491.781 1091.98 497.977 1080.64 508 1077.79C516.994 1075.23 520.543 1084.14 528 1084C518.696 1066.23 493.447 1074.83 491.185 1093C490.203 1100.89 492.795 1109.43 499.043 1114.61C508.401 1122.37 523.382 1119.73 529 1109M550 1074.61C523.464 1081.63 532.629 1125.62 560 1118.44C585.185 1111.83 575.872 1067.77 550 1074.61M584 1074L584 1119L587 1119L587 1082C594.284 1089.44 600.503 1097.88 607 1106C610.864 1110.83 614.294 1116.32 620 1119C621.18 1109.67 621 1100.41 621 1091C621 1085.36 621.607 1079.44 620 1074L618 1074C614.641 1085.36 617 1100.16 617 1112C609.31 1103.96 602.734 1094.7 595.801 1086C592.228 1081.52 589.279 1076.51 584 1074M629 1111C634.716 1122.15 662.732 1123.35 661.848 1107C661.096 1093.08 642.138 1098.22 635.449 1089.87C631.508 1084.94 635.913 1079.27 641.004 1077.65C647.493 1075.59 653.106 1078.89 659 1081C655.008 1068.92 630.461 1072.87 630.202 1086C629.916 1100.52 651.161 1095.1 657.254 1104.11C663.928 1113.97 647.466 1117.54 641 1115.7C636.803 1114.51 633.264 1111.98 629 1111M670 1074C667.154 1083.63 667.237 1102.33 672.879 1111C679.131 1120.6 694.843 1122.39 702.2 1112.9C709.506 1103.46 706 1085.28 706 1074C702.4 1076.33 703.002 1080 703 1084C702.997 1091.1 704.569 1100.43 701.427 1107C695.633 1119.12 680.359 1119.11 674.573 1107C669.829 1097.08 675.073 1084.4 672 1074L670 1074M718 1074L718 1119L747 1119L747 1116L721 1116C721 1102.99 723.689 1086.48 720 1074L718 1074M742 1074L742 1077L758 1077L758 1119L761 1119L761 1090C761 1086.69 760.019 1081.19 762.603 1078.6C765.751 1075.46 773.904 1077 778 1077C775.666 1073.4 772.005 1074 768 1074L742 1074M785 1074L785 1119C789.037 1116.38 788 1111.39 788 1107C788 1096.63 789.945 1083.96 787 1074L785 1074M800 1074C798.393 1079.44 799 1085.36 799 1091L799 1119L802 1119L802 1081C810.051 1089.41 816.933 1098.92 824.2 1108C827.621 1112.28 830.563 1117.41 836 1119L836 1075L833 1075L833 1112C824.68 1104.73 818.289 1094.62 811.4 1086C807.921 1081.65 804.91 1076.77 800 1074M881 1113L881 1119L883 1119L883 1097C878.577 1097 874.261 1096.74 870 1098C873.266 1100.47 877.01 1100 881 1100C880.961 1110.95 871.105 1119.42 860 1114.77C850.103 1110.63 845.65 1098.74 849.613 1089C850.958 1085.7 853.223 1082.74 856.04 1080.56C859.672 1077.74 864.451 1076.37 869 1077.4C873.894 1078.5 876.841 1082.63 881 1085C880.365 1070.73 858.46 1072.4 851.213 1080.1C840.454 1091.54 844.036 1113.6 860 1118.21C868.159 1120.57 874.233 1117.07 881 1113z"/>
<path style="fill:#fcfcfc; stroke:none;" d="M202 1099C207.479 1099 213.6 1099.77 218.996 1098.77C226.811 1097.33 229.175 1086.96 224.486 1081.13C221.104 1076.93 215.913 1077 211 1077C208.582 1077 204.743 1076.44 203.028 1078.6C199.864 1082.6 202 1094.06 202 1099M241 1077L241 1099C246.839 1099 255.673 1100.64 260.956 1097.82C268.062 1094.03 267.347 1082.92 260.956 1078.86C255.622 1075.47 247.045 1077 241 1077M292 1077.64C269.635 1084.09 278.567 1122.71 302 1115.35C322.773 1108.82 314.043 1071.28 292 1077.64M551 1077.53C528.084 1082.56 535.208 1121.07 559 1115.61C580.288 1110.71 573.302 1072.64 551 1077.53z"/>
<path style="fill:#292f23; stroke:none;" d="M242 1134L242 1221C242 1234.92 244.526 1251.68 239.899 1265C233.583 1283.18 216.754 1290 199 1290L199 1295L320 1295L320 1290C301.892 1290 285.375 1282.46 279.36 1264C276.278 1254.55 278 1242.85 278 1233L278 1172L278 1145C278 1142.2 278.918 1137.02 276.397 1135.03C274.125 1133.23 269.693 1134 267 1134L242 1134M525 1134C525.178 1155.49 533.249 1178.94 542.753 1198C555.765 1224.09 573.347 1247.39 597 1264.84C668.838 1317.84 785.865 1319.06 850.961 1253.96C859.813 1245.11 871.254 1232.92 875.671 1221C878.786 1212.59 877.326 1201.86 878.17 1193C880.042 1173.34 881.446 1153.69 883 1134C875.437 1135.26 876.051 1148.68 875.131 1155C872.01 1176.47 863.872 1198.21 853.127 1217C826.114 1264.25 775.535 1285.57 723 1286.87C672.324 1288.12 622.745 1259.88 595.344 1218C583.89 1200.49 576.402 1181.14 571.116 1161C569.554 1155.05 568.227 1149.08 567.275 1143C566.862 1140.36 566.907 1136.76 564.486 1135.03C561.665 1133.01 556.272 1134 553 1134L525 1134z"/>
</svg>
